<svg width="400" height="400" viewBox="0 0 400 400" fill="none" xmlns="http://www.w3.org/2000/svg">
<path d="M50 200C50 219.16 57.76 236.5 70.32 249.06C82.87 261.61 100.22 269.38 119.37 269.38H280.62C242.31 269.38 211.25 238.31 211.25 200C211.25 161.69 242.31 130.62 280.62 130.62H119.37C81.06 130.62 50 161.69 50 200Z" fill="#6A0BFF"/>
<path d="M280.62 269.38C318.938 269.38 350 238.318 350 200C350 161.683 318.938 130.62 280.62 130.62C242.302 130.62 211.24 161.683 211.24 200C211.24 238.318 242.302 269.38 280.62 269.38Z" stroke="#6A0BFF" stroke-width="12" stroke-miterlimit="10" stroke-linecap="round" stroke-linejoin="round"/>
<path d="M119.37 269.38H280.62C318.93 269.38 349.99 238.32 349.99 200.01C349.99 161.7 318.93 130.64 280.62 130.64H119.37C81.06 130.62 50 161.69 50 200C50 238.31 81.06 269.38 119.37 269.38Z" stroke="#191919" stroke-width="12" stroke-miterlimit="10" stroke-linecap="round" stroke-linejoin="round"/>
</svg>
