<?xml version="1.0" encoding="iso-8859-1"?>
<!-- Uploaded to: SVG Repo, www.svgrepo.com, Generator: SVG Repo Mixer Tools -->
<svg fill="#000000" height="800px" width="800px" version="1.1" id="Layer_1" xmlns="http://www.w3.org/2000/svg" xmlns:xlink="http://www.w3.org/1999/xlink" 
	 viewBox="0 0 512.043 512.043" xml:space="preserve">
<g transform="translate(0 -1)">
	<g>
		<g>
			<path d="M443.218,136.923c-0.026-0.033-0.052-0.066-0.078-0.099c-0.435-0.522-0.891-1.036-1.388-1.533l-128-128
				c-0.497-0.497-1.011-0.953-1.533-1.388c-0.032-0.027-0.066-0.052-0.099-0.078c-4.375-3.606-9.535-5.071-14.529-4.782H85.333
				C73.551,1.043,64,10.594,64,22.376v469.333c0,11.782,9.551,21.333,21.333,21.333h341.333c11.782,0,21.333-9.551,21.333-21.333
				V151.452C448.289,146.459,446.825,141.298,443.218,136.923z M375.163,129.043H320V73.879L375.163,129.043z M106.667,470.376
				V43.709h170.667v106.667c0,11.782,9.551,21.333,21.333,21.333h106.667v298.667H106.667z"/>
			<path d="M234.662,107.709h-77.973c-11.782,0-21.333,9.551-21.333,21.333c0,11.782,9.551,21.333,21.333,21.333h77.973
				c11.782,0,21.333-9.551,21.333-21.333C255.996,117.261,246.444,107.709,234.662,107.709z"/>
			<path d="M156.689,235.709h56.64c11.782,0,21.333-9.551,21.333-21.333c0-11.782-9.551-21.333-21.333-21.333h-56.64
				c-11.782,0-21.333,9.551-21.333,21.333C135.356,226.158,144.907,235.709,156.689,235.709z"/>
			<path d="M298.667,235.709h42.667c11.782,0,21.333-9.551,21.333-21.333c0-11.782-9.551-21.333-21.333-21.333h-42.667
				c-11.782,0-21.333,9.551-21.333,21.333C277.333,226.158,286.885,235.709,298.667,235.709z"/>
			<path d="M151.531,321.043h61.803c11.782,0,21.333-9.551,21.333-21.333c0-11.782-9.551-21.333-21.333-21.333h-61.803
				c-11.782,0-21.333,9.551-21.333,21.333C130.197,311.491,139.749,321.043,151.531,321.043z"/>
			<path d="M204.405,367.778c-6.827-0.875-14.08-1.813-20.907-0.064c-3.563,0.917-7.061,2.645-10.368,4.331
				c-1.731,1.018-3.49,2.004-5.253,2.979c0.009-0.205-0.03-0.451-0.123-0.739c-12.992-24.213-49.835-2.688-36.843,21.525
				c10.432,19.435,33.365,27.52,53.547,18.432c1.805-0.81,10.707-4.203,9.7-4.905c1.501,0.069,3.019,0.256,4.401,0.404
				c2.261,0.235,4.544,0.661,6.763,1.152c1.963,0.405,3.904,0.896,5.824,1.472c0.231,0.092,0.432,0.168,0.637,0.245
				c16.929,13.18,45.775-6.226,31.896-26.891C234.869,372.599,219.104,369.634,204.405,367.778z"/>
			<path d="M320,257.043c-35.355,0-64,28.645-64,64c0,18.958,8.243,35.98,21.333,47.697v43.695
				c0,13.504,16.341,20.267,25.877,10.731L320,406.376l16.789,16.789c9.536,9.536,25.877,2.773,25.877-10.731V368.74
				C375.757,357.022,384,340.001,384,321.043C384,285.687,355.355,257.043,320,257.043z M320,299.709
				c11.791,0,21.333,9.542,21.333,21.333s-9.542,21.333-21.333,21.333s-21.333-9.542-21.333-21.333S308.209,299.709,320,299.709z"/>
		</g>
	</g>
</g>
</svg>